<?xml version="1.0" standalone="no"?><!DOCTYPE svg PUBLIC "-//W3C//DTD SVG 1.1//EN" "http://www.w3.org/Graphics/SVG/1.1/DTD/svg11.dtd"><svg t="1558531460080" class="icon" style="" viewBox="0 0 1024 1024" version="1.1" xmlns="http://www.w3.org/2000/svg" p-id="1781" xmlns:xlink="http://www.w3.org/1999/xlink" width="512" height="512"><defs><style type="text/css"></style></defs><path d="M0 0m136.533333 0l750.933334 0q136.533333 0 136.533333 136.533333l0 750.933334q0 136.533333-136.533333 136.533333l-750.933334 0q-136.533333 0-136.533333-136.533333l0-750.933334q0-136.533333 136.533333-136.533333Z" fill="#040000" p-id="1782"></path><path d="M808.618667 728.234667C728.234667 787.626667 611.669333 819.2 512 819.2a538.112 538.112 0 0 1-363.178667-138.581333c-7.509333-6.826667 0-16.042667 8.192-10.752a730.965333 730.965333 0 0 0 362.666667 96.426666 722.944 722.944 0 0 0 277.162667-56.661333c13.653333-5.802667 25.088 8.874667 11.776 18.602667z" fill="#F29419" p-id="1783"></path><path d="M842.069333 690.176c-10.24-13.141333-68.266667-6.314667-93.866666-3.072-7.850667 1.024-9.045333-5.973333-2.048-10.922667 46.08-32.256 121.344-23.04 130.218666-12.117333s-2.389333 86.528-45.397333 122.538667c-6.656 5.632-12.970667 2.56-10.069333-4.778667 9.728-24.234667 31.402667-78.506667 21.162666-91.648z" fill="#F29419" p-id="1784"></path><path d="M719.36 621.909333c-16.213333-22.357333-34.133333-40.618667-34.133333-82.261333v-138.24c0-58.538667 4.096-112.298667-38.912-152.576-34.133333-32.597333-90.453333-44.202667-133.632-44.202667-84.48 0-178.517333 31.573333-198.314667 136.533334a15.530667 15.530667 0 0 0 13.824 17.237333l85.333333 9.386667a18.773333 18.773333 0 0 0 15.36-17.066667 68.266667 68.266667 0 0 1 71.338667-53.248 59.221333 59.221333 0 0 1 49.834667 23.04c12.458667 18.261333 10.752 43.178667 10.752 64.341333v11.434667c-51.2 5.802667-119.466667 9.557333-166.741334 30.72a150.698667 150.698667 0 0 0-94.549333 144.896c0 92.16 58.026667 138.24 132.778667 138.24 62.976 0 97.621333-14.848 146.261333-64.512a216.576 216.576 0 0 0 51.2 59.050667 18.432 18.432 0 0 0 20.992-2.048c17.066667-15.701333 49.834667-43.690667 68.266667-58.88a17.066667 17.066667 0 0 0 0.341333-21.845334z m-174.592-39.765333a72.021333 72.021333 0 0 1-61.44 40.277333c-34.133333 0-53.930667-25.941333-53.930667-64.341333 0-75.605333 68.266667-89.258667 131.925334-89.258667v19.114667c0 34.645333 0.853333 63.488-16.554667 94.208z" fill="#FFFFFF" p-id="1785"></path></svg>