<?xml version="1.0" standalone="no"?><!DOCTYPE svg PUBLIC "-//W3C//DTD SVG 1.1//EN" "http://www.w3.org/Graphics/SVG/1.1/DTD/svg11.dtd"><svg t="1558531494176" class="icon" style="" viewBox="0 0 4002 1024" version="1.1" xmlns="http://www.w3.org/2000/svg" p-id="2161" xmlns:xlink="http://www.w3.org/1999/xlink" width="2001" height="512"><defs><style type="text/css"></style></defs><path d="M0 0h4002.909091v1024H0z" fill="#FFFFFF" p-id="2162"></path><path d="M1172.945455 246.690909c-279.272727 0-288.581818 218.763636-288.581819 274.618182 0 0-13.963636 251.345455 283.927273 251.345454 256 0 265.309091-158.254545 265.309091-158.254545h-116.363636s-23.272727 88.436364-148.945455 83.781818c-162.909091-4.654545-167.563636-158.254545-167.563636-158.254545h451.490909s32.581818-293.236364-279.272727-293.236364zM1000.727273 465.454545s9.309091-139.636364 167.563636-139.636363 158.254545 139.636364 158.254546 139.636363h-325.818182z" fill="#E43137" p-id="2163"></path><path d="M1759.418182 246.690909c-134.981818 0-195.490909 83.781818-195.490909 83.781818V46.545455h-107.054546v595.781818s0 69.818182-4.654545 116.363636h107.054545l4.654546-65.163636s51.2 83.781818 195.490909 83.781818 260.654545-93.090909 260.654545-265.309091-125.672727-265.309091-260.654545-265.309091z m-27.927273 451.490909c-172.218182 0-167.563636-190.836364-167.563636-190.836363s-4.654545-186.181818 167.563636-190.836364c176.872727 0 172.218182 195.490909 172.218182 195.490909s0 186.181818-172.218182 186.181818z" fill="#0063D1" p-id="2164"></path><path d="M2541.381818 642.327273c0-74.472727 4.654545-144.290909 0-190.836364-4.654545-55.854545 0-190.836364-237.381818-200.145454 0 0-228.072727-23.272727-251.345455 148.945454h116.363637s9.309091-79.127273 130.327273-74.472727c111.709091 0 134.981818 55.854545 130.327272 125.672727h-130.327272c-55.854545 0-260.654545 4.654545-279.272728 130.327273-23.272727 148.945455 107.054545 195.490909 209.454546 195.490909s162.909091-32.581818 204.8-88.436364l4.654545 69.818182h102.4c4.654545-4.654545 0-41.890909 0-116.363636z m-288.581818 60.509091s-111.709091 0-116.363636-88.436364c-4.654545-97.745455 172.218182-88.436364 172.218181-88.436364h125.672728c-4.654545 0 18.618182 181.527273-181.527273 176.872728z" fill="#F4AE01" p-id="2165"></path><path d="M2504.145455 288.581818h134.981818l195.490909 386.327273 195.490909-386.327273h121.018182L2797.381818 977.454545h-130.327273l102.4-190.836363z" fill="#85B716" p-id="2166"></path></svg>