<?xml version="1.0" standalone="no"?><!DOCTYPE svg PUBLIC "-//W3C//DTD SVG 1.1//EN" "http://www.w3.org/Graphics/SVG/1.1/DTD/svg11.dtd"><svg t="1558531489450" class="icon" style="" viewBox="0 0 1024 1024" version="1.1" xmlns="http://www.w3.org/2000/svg" p-id="2033" xmlns:xlink="http://www.w3.org/1999/xlink" width="512" height="512"><defs><style type="text/css"></style></defs><path d="M123.6 373.7h194.2v402H123.6z" fill="#FF0033" p-id="2034"></path><path d="M317.8 373.7H512v402H317.8z" fill="#0066FF" p-id="2035"></path><path d="M512 373.7h194.2v402H512z" fill="#FFCC00" p-id="2036"></path><path d="M706.2 373.7h194.2v402H706.2z" fill="#33CC33" p-id="2037"></path><path d="M123.6 775.8h776.8V873H123.6zM776.8 322.7c-3.2-52.5-31.3-101-79.8-137.6-49.6-37.4-115.3-58.1-185-58.1s-135.4 20.7-185.1 58.1c-48.5 36.6-76.5 85.1-79.8 137.6H123.6v51h776.7v-51H776.8z m-492 0c3.3-39.2 25.7-76.1 63.8-104.9C392 185 450 167 512 167s120 18 163.4 50.8c38.1 28.8 60.5 65.7 63.8 104.9H284.8z" fill="#333333" p-id="2038"></path></svg>