<?xml version="1.0" standalone="no"?><!DOCTYPE svg PUBLIC "-//W3C//DTD SVG 1.1//EN" "http://www.w3.org/Graphics/SVG/1.1/DTD/svg11.dtd"><svg t="1558531680115" class="icon" style="" viewBox="0 0 1024 1024" version="1.1" xmlns="http://www.w3.org/2000/svg" p-id="2998" xmlns:xlink="http://www.w3.org/1999/xlink" width="512" height="512"><defs><style type="text/css"></style></defs><path d="M762.071987 555.499723c0-19.054985 15.424294-34.45165 34.307364-34.45165 19.053961 0 34.424021 15.396665 34.424021 34.45165l0 336.989057c0 19.564591-15.370059 34.704406-34.424021 34.704406l-0.789992 0L228.499669 927.193187c-19.281135 0-34.706453-15.139815-34.706453-34.704406l0-0.737804L193.793216 555.499723c0-19.054985 15.424294-34.45165 34.706453-34.45165 19.053961 0 34.70543 15.396665 34.70543 34.45165l0 302.736952 498.866888 0L762.071987 555.499723 762.071987 555.499723zM123.361097 565.280484 123.361097 565.280484l389.079436-389.533784 388.793934 389.533784c13.950733 13.21293 35.44528 13.21293 49.164746 0 13.213953-13.696953 13.213953-35.700083 0-49.13814L537.392832 103.359043l-0.51063-0.735757c-13.440104-13.213953-35.443233-13.213953-48.65514 0L74.478783 516.142343c-13.497409 13.438057-13.497409 35.441187 0 49.13814C88.145038 578.494437 109.694843 578.494437 123.361097 565.280484L123.361097 565.280484z" fill="#bfbfbf" p-id="2999"></path></svg>