<?xml version="1.0" standalone="no"?><!DOCTYPE svg PUBLIC "-//W3C//DTD SVG 1.1//EN" "http://www.w3.org/Graphics/SVG/1.1/DTD/svg11.dtd"><svg t="1558531449349" class="icon" style="" viewBox="0 0 1024 1024" version="1.1" xmlns="http://www.w3.org/2000/svg" p-id="1653" xmlns:xlink="http://www.w3.org/1999/xlink" width="512" height="512"><defs><style type="text/css"></style></defs><path d="M778.24 1024H245.76c-135.68 0-245.76-110.08-245.76-245.76V245.76C0 110.08 110.08 0 245.76 0h532.48c135.68 0 245.76 110.08 245.76 245.76v532.48c0 135.68-110.08 245.76-245.76 245.76z" fill="#F39517" p-id="1654"></path><path d="M778.24 1024H245.76c-135.68 0-245.76-110.08-245.76-245.76V409.6c0-113.152 91.648-204.8 204.8-204.8h614.4c113.152 0 204.8 91.648 204.8 204.8v368.64c0 135.68-110.08 245.76-245.76 245.76z" fill="#D83416" p-id="1655"></path><path d="M220.16 449.536m-61.44 0a61.44 61.44 0 1 0 122.88 0 61.44 61.44 0 1 0-122.88 0Z" fill="#040000" opacity=".3" p-id="1656"></path><path d="M802.304 449.536m-61.44 0a61.44 61.44 0 1 0 122.88 0 61.44 61.44 0 1 0-122.88 0Z" fill="#040000" opacity=".3" p-id="1657"></path><path d="M803.84 418.816c-19.968 0-35.84 15.872-35.84 35.84 0 341.504-512 341.504-512 0 0-19.968-15.872-35.84-35.84-35.84s-35.84 15.872-35.84 35.84c0 436.736 655.36 436.736 655.36 0 0-19.456-15.872-35.84-35.84-35.84z" fill="#FFFFFF" p-id="1658"></path></svg>