<?xml version="1.0" standalone="no"?><!DOCTYPE svg PUBLIC "-//W3C//DTD SVG 1.1//EN" "http://www.w3.org/Graphics/SVG/1.1/DTD/svg11.dtd"><svg t="1558531472625" class="icon" style="" viewBox="0 0 1024 1024" version="1.1" xmlns="http://www.w3.org/2000/svg" p-id="1908" xmlns:xlink="http://www.w3.org/1999/xlink" width="512" height="512"><defs><style type="text/css"></style></defs><path d="M0 0m136.533333 0l750.933334 0q136.533333 0 136.533333 136.533333l0 750.933334q0 136.533333-136.533333 136.533333l-750.933334 0q-136.533333 0-136.533333-136.533333l0-750.933334q0-136.533333 136.533333-136.533333Z" fill="#35BBE1" p-id="1909"></path><path d="M290.133333 614.4a821.077333 821.077333 0 0 1 15.018667-129.877333c4.096-24.064 0-40.789333-26.112-49.493334-29.866667-9.898667-58.88-22.869333-87.722667-35.669333s-38.741333-31.744-30.72-63.829333c20.821333-83.114667 31.402667-65.877333 85.333334-44.032 48.298667 19.456 96.256 39.594667 144.384 59.562666 34.133333 14.165333 43.690667 28.842667 38.912 65.194667q-10.24 76.117333-21.845334 151.893333c-5.802667 38.058667 6.314667 60.586667 37.546667 66.56a59.392 59.392 0 0 0 64.512-46.250666A663.381333 663.381333 0 0 0 520.533333 512a43.008 43.008 0 0 1 35.328-41.642667c25.258667-5.632 51.2-8.533333 73.045334 10.24a28.501333 28.501333 0 0 1 7.68 28.16c-3.413333 20.138667-5.290667 40.618667-8.021334 60.928-5.290667 38.741333 5.973333 59.392 35.498667 64.341334a62.464 62.464 0 0 0 66.218667-48.298667 925.866667 925.866667 0 0 0 15.872-107.861333c4.437333-68.266667 40.448-72.362667 100.352-63.829334a22.186667 22.186667 0 0 1 20.138666 25.770667c-9.045333 60.586667-9.216 123.050667-30.037333 181.248a194.218667 194.218667 0 0 1-195.242667 129.024 131.584 131.584 0 0 1-73.386666-27.136 28.330667 28.330667 0 0 0-37.888 0 160.938667 160.938667 0 0 1-165.717334 10.922667A125.44 125.44 0 0 1 290.133333 614.4z" fill="#FFFFFF" p-id="1910"></path></svg>